<svg xmlns="http://www.w3.org/2000/svg" width="97.042" height="107.696" viewBox="0 0 97.042 107.696"><defs><style>.a{fill:#034ea2;}.b{fill:#fff;}</style></defs><g transform="translate(-122 -1209)"><g transform="translate(122 1209)"><rect class="a" width="97.042" height="107.696" rx="4"/></g><g transform="translate(125.641 1256)"><path class="b" d="M6.578,10.247A1.684,1.684,0,0,1,6.6,11.2a1.113,1.113,0,0,1-1.253.867A1.151,1.151,0,0,1,4.056,10.9V9.652H.6v.991c0,2.869,2.256,3.736,4.675,3.736,2.326,0,4.24-.791,4.545-2.939a6.285,6.285,0,0,0-.012-2.108c-.544-2.694-5.424-3.5-5.79-5a1.649,1.649,0,0,1-.012-.677,1.06,1.06,0,0,1,1.175-.864A1.094,1.094,0,0,1,6.379,3.953v.8h3.21V3.845C9.589,1.042,7.073.6,5.255.6,2.966.6,1.1,1.362.755,3.461a4.487,4.487,0,0,0,.03,1.734c.559,2.628,5.128,3.389,5.793,5.053" transform="translate(-0.604 -0.58)"/><path class="b" d="M25.762,1.422,23.376,14.285h3.476L28.613,2.612h.072L30.4,14.285h3.458L31.485,1.419Zm19.435,0-1.586,9.834h-.076L41.953,1.422H36.707l-.284,12.863h3.219l.079-11.564h.072l2.147,11.564h3.265l2.15-11.561h.069l.082,11.561h3.216L50.439,1.419Z" transform="translate(-11.99 -0.988)"/><path class="b" d="M6.578,10.247A1.684,1.684,0,0,1,6.6,11.2a1.113,1.113,0,0,1-1.253.867A1.151,1.151,0,0,1,4.056,10.9V9.652H.6v.991c0,2.869,2.256,3.736,4.675,3.736,2.326,0,4.24-.791,4.545-2.939a6.285,6.285,0,0,0-.012-2.108c-.544-2.694-5.424-3.5-5.79-5a1.649,1.649,0,0,1-.012-.677,1.06,1.06,0,0,1,1.175-.864A1.094,1.094,0,0,1,6.379,3.953v.8h3.21V3.845C9.589,1.042,7.073.6,5.255.6,2.966.6,1.1,1.362.755,3.461a4.487,4.487,0,0,0,.03,1.734c.559,2.628,5.128,3.389,5.793,5.053" transform="translate(41.216 -0.604)"/><path class="b" d="M113.264,12.011a1.156,1.156,0,0,0,1.232-.93,2.818,2.818,0,0,0,.03-.492V1.075h3.256V10.3q0,.423-.03.846c-.227,2.4-2.123,3.18-4.488,3.18s-4.264-.779-4.491-3.18c-.009-.127-.033-.61-.03-.846V1.072H112v9.513a2.568,2.568,0,0,0,.03.5,1.155,1.155,0,0,0,1.235.93M128.993,1.075l.175,10.1H129.1l-2.96-10.1h-4.772V13.8h3.162l-.175-10.447h.069L127.6,13.8h4.582V1.075Zm11.1,10.8a1.2,1.2,0,0,0,1.314-.936,2.769,2.769,0,0,0,.03-.483V8.586h-1.32V6.714h4.557v3.449a7.966,7.966,0,0,1-.045.846c-.211,2.344-2.244,3.18-4.524,3.18s-4.31-.837-4.524-3.18c-.036-.429-.045-.6-.045-.846V4.751c0-.23.03-.634.054-.846.287-2.407,2.235-3.18,4.515-3.18s4.28.767,4.515,3.177a7.5,7.5,0,0,1,.03.846V5.18h-3.244V4.458a3.049,3.049,0,0,0-.039-.489,1.175,1.175,0,0,0-1.287-.936,1.188,1.188,0,0,0-1.281.936,2.909,2.909,0,0,0-.054.607v5.88a3.176,3.176,0,0,0,.03.489,1.208,1.208,0,0,0,1.317.933" transform="translate(-54.673 -0.64)"/></g></g></svg>