<svg xmlns="http://www.w3.org/2000/svg" width="21.434" height="21.339" viewBox="0 0 21.434 21.339"><defs><style>.a,.b,.c{fill:none;stroke:#666;stroke-linecap:round;stroke-miterlimit:10;stroke-width:1.4px;}.a{stroke-linejoin:bevel;}.b{stroke-linejoin:round;}</style></defs><g transform="translate(-129.295 -594.271)"><line class="a" x1="0.667" y2="3.953" transform="translate(130.743 609.798)"/><line class="a" x2="4.191" y2="0.663" transform="translate(131.409 609.798)"/><line class="b" x2="5.715" transform="translate(137.157 600.458)"/><line class="b" x2="5.715" transform="translate(137.157 602.943)"/><path class="b" d="M37.6,35.047l-3.453-3.976H35.1a2.492,2.492,0,0,0,2.5-2.485h0A2.492,2.492,0,0,0,35.1,26.1H33.2" transform="translate(103.933 574.358)"/><path class="c" d="M5.048,18.393a10.035,10.035,0,0,0,17.287-.876A9.9,9.9,0,0,0,18,4.144,10.018,10.018,0,0,0,4.548,8.428a9.57,9.57,0,0,0-1.048,3.5" transform="translate(126.562 591.959)"/></g></svg>