<svg xmlns="http://www.w3.org/2000/svg" width="12.682" height="21.4" viewBox="0 0 12.682 21.4">
  <g id="topup_selected" data-name="topup selected" transform="translate(-110.3 -620.242)">
    <g id="Group_25801" data-name="Group 25801" transform="translate(-299.339 -1597.942)">
      <path id="Path_54702" data-name="Path 54702" d="M421.621,2237.145a1.635,1.635,0,0,1-1.5,1.739h-8.273a1.635,1.635,0,0,1-1.5-1.739v-16.522a1.634,1.634,0,0,1,1.5-1.739h8.273a1.635,1.635,0,0,1,1.5,1.739Z" transform="translate(0 0)" fill="none" stroke="#0e4194" stroke-miterlimit="10" stroke-width="1.4"/>
    </g>
    <path id="Path_64639" data-name="Path 64639" d="M.267-10.049H6.733q.055.007.055.055v.615a.048.048,0,0,1-.055.055H4.3v.055a1.9,1.9,0,0,1,.807,1.148l.027.2h1.6q.055.007.055.055v.615a.048.048,0,0,1-.055.055H5.2a2.661,2.661,0,0,1-1.265,2.01,3.977,3.977,0,0,1-1.593.643q0,.027-.055.027l3.473,4.5V.034H4.437Q4.416.034.41-5.188v-.027H.827q2.215,0,2.659-1.593a2.284,2.284,0,0,0,.027-.308V-7.2H.267a.048.048,0,0,1-.055-.055v-.615q.007-.055.055-.055h3.22a1.786,1.786,0,0,0-.7-1.012,2.928,2.928,0,0,0-1.347-.39H.267a.048.048,0,0,1-.055-.055v-.615Q.219-10.049.267-10.049Z" transform="translate(113.3 636)" fill="#0e4194"/>
  </g>
</svg>
