<svg xmlns="http://www.w3.org/2000/svg" width="19.969" height="20" viewBox="0 0 19.969 20"><defs><style>.a{fill:none;stroke-miterlimit:10;}.b,.c{stroke:none;}.c{fill:#666;}</style></defs><g transform="translate(-1936.272 -1650.254)"><g class="a" transform="translate(0 0)"><path class="b" d="M1944.032,1650.254h-6.454a.5.5,0,0,0-.066,0,1.3,1.3,0,0,0-1.24,1.3v6.455a1.307,1.307,0,0,0,1.306,1.305h6.454a1.3,1.3,0,0,0,1.3-1.24.523.523,0,0,0,0-.065v-6.455A1.307,1.307,0,0,0,1944.032,1650.254Z"/><path class="c" d="M 1937.671997070312 1651.654174804688 L 1937.671997070312 1657.919555664062 L 1943.937622070312 1657.919555664062 L 1943.937622070312 1651.654174804688 L 1937.671997070312 1651.654174804688 M 1937.577514648438 1650.254150390625 L 1944.031982421875 1650.254150390625 C 1944.751953125 1650.254150390625 1945.337646484375 1650.839721679688 1945.337646484375 1651.5595703125 L 1945.337646484375 1658.01416015625 C 1945.337646484375 1658.03662109375 1945.3359375 1658.05810546875 1945.333251953125 1658.07958984375 C 1945.2978515625 1658.7763671875 1944.7294921875 1659.319580078125 1944.031982421875 1659.319580078125 L 1937.577514648438 1659.319580078125 C 1936.857666015625 1659.319580078125 1936.27197265625 1658.73388671875 1936.27197265625 1658.01416015625 L 1936.27197265625 1651.5595703125 C 1936.27197265625 1650.862548828125 1936.815185546875 1650.293701171875 1937.51171875 1650.2587890625 C 1937.533813476562 1650.255859375 1937.555419921875 1650.254150390625 1937.577514648438 1650.254150390625 Z"/></g><g class="a" transform="translate(-24.042 0)"><path class="b" d="M1978.977,1650.254h-6.455a.5.5,0,0,0-.066,0,1.3,1.3,0,0,0-1.24,1.3v6.455a1.307,1.307,0,0,0,1.305,1.305h6.455a1.3,1.3,0,0,0,1.3-1.24.5.5,0,0,0,0-.065v-6.455A1.307,1.307,0,0,0,1978.977,1650.254Z"/><path class="c" d="M 1972.617065429688 1651.654174804688 L 1972.617065429688 1657.919555664062 L 1978.882568359375 1657.919555664062 L 1978.882568359375 1651.654174804688 L 1972.617065429688 1651.654174804688 M 1972.5224609375 1650.254150390625 L 1978.97705078125 1650.254150390625 C 1979.697021484375 1650.254150390625 1980.282592773438 1650.839721679688 1980.282592773438 1651.5595703125 L 1980.282592773438 1658.01416015625 C 1980.282592773438 1658.03662109375 1980.281005859375 1658.05810546875 1980.278198242188 1658.07958984375 C 1980.242919921875 1658.7763671875 1979.674438476562 1659.319580078125 1978.97705078125 1659.319580078125 L 1972.5224609375 1659.319580078125 C 1971.802734375 1659.319580078125 1971.217041015625 1658.73388671875 1971.217041015625 1658.01416015625 L 1971.217041015625 1651.5595703125 C 1971.217041015625 1650.862548828125 1971.76025390625 1650.293701171875 1972.456665039062 1650.2587890625 C 1972.478759765625 1650.255859375 1972.500366210938 1650.254150390625 1972.5224609375 1650.254150390625 Z"/></g><g class="a" transform="translate(-24.042 -24.111)"><path class="b" d="M1978.977,1685.3h-6.455a.459.459,0,0,0-.066,0,1.3,1.3,0,0,0-1.24,1.3v6.455a1.307,1.307,0,0,0,1.305,1.305h6.455a1.3,1.3,0,0,0,1.3-1.24.507.507,0,0,0,0-.066V1686.6A1.307,1.307,0,0,0,1978.977,1685.3Z"/><path class="c" d="M 1972.617065429688 1686.699096679688 L 1972.617065429688 1692.964477539062 L 1978.882568359375 1692.964477539062 L 1978.882568359375 1686.699096679688 L 1972.617065429688 1686.699096679688 M 1972.5224609375 1685.299072265625 L 1978.97705078125 1685.299072265625 C 1979.697021484375 1685.299072265625 1980.282592773438 1685.884765625 1980.282592773438 1686.6044921875 L 1980.282592773438 1693.05908203125 C 1980.282592773438 1693.081298828125 1980.281005859375 1693.10302734375 1980.278198242188 1693.124633789062 C 1980.242919921875 1693.8212890625 1979.674438476562 1694.364501953125 1978.97705078125 1694.364501953125 L 1972.5224609375 1694.364501953125 C 1971.802734375 1694.364501953125 1971.217041015625 1693.778930664062 1971.217041015625 1693.05908203125 L 1971.217041015625 1686.6044921875 C 1971.217041015625 1685.9072265625 1971.76025390625 1685.338623046875 1972.456665039062 1685.3037109375 C 1972.478759765625 1685.300537109375 1972.500366210938 1685.299072265625 1972.5224609375 1685.299072265625 Z"/></g><g class="a" transform="translate(0 -24.111)"><path class="b" d="M1944.032,1685.3h-6.454a.459.459,0,0,0-.066,0,1.3,1.3,0,0,0-1.24,1.3v6.455a1.307,1.307,0,0,0,1.306,1.305h6.454a1.3,1.3,0,0,0,1.3-1.24.529.529,0,0,0,0-.066V1686.6A1.307,1.307,0,0,0,1944.032,1685.3Z"/><path class="c" d="M 1937.671997070312 1686.699096679688 L 1937.671997070312 1692.964477539062 L 1943.937622070312 1692.964477539062 L 1943.937622070312 1686.699096679688 L 1937.671997070312 1686.699096679688 M 1937.577514648438 1685.299072265625 L 1944.031982421875 1685.299072265625 C 1944.751953125 1685.299072265625 1945.337646484375 1685.884765625 1945.337646484375 1686.6044921875 L 1945.337646484375 1693.05908203125 C 1945.337646484375 1693.081298828125 1945.3359375 1693.10302734375 1945.333251953125 1693.124633789062 C 1945.2978515625 1693.8212890625 1944.7294921875 1694.364501953125 1944.031982421875 1694.364501953125 L 1937.577514648438 1694.364501953125 C 1936.857666015625 1694.364501953125 1936.27197265625 1693.778930664062 1936.27197265625 1693.05908203125 L 1936.27197265625 1686.6044921875 C 1936.27197265625 1685.9072265625 1936.815185546875 1685.338623046875 1937.51171875 1685.3037109375 C 1937.533813476562 1685.300537109375 1937.555419921875 1685.299072265625 1937.577514648438 1685.299072265625 Z"/></g></g></svg>