<svg xmlns="http://www.w3.org/2000/svg" width="16.016" height="21.4" viewBox="0 0 16.016 21.4"><defs><style>.a{fill:#0e4194;}.b{fill:none;stroke:#0e4194;stroke-linecap:round;stroke-linejoin:round;stroke-miterlimit:10;stroke-width:1.4px;}</style></defs><g transform="translate(-19256.3 -597.3)"><g transform="translate(19257 598)"><g transform="translate(0)"><g transform="translate(2.72 11.479)"><path class="a" d="M17.133,50.652a1.222,1.222,0,0,0-.454-.076V48.231c0-.63-.4-.731-.656-.731a.513.513,0,0,0-.378.151c-.076.076-.177.2-.3.353L13.628,50.3l-.126.151c-.025.05-.076.1-.1.151a.377.377,0,0,0-.076.177.429.429,0,0,0-.025.176.7.7,0,0,0,.2.5.8.8,0,0,0,.58.176h1.462v.454a.727.727,0,0,0,.151.479.5.5,0,0,0,.4.176.47.47,0,0,0,.4-.176.683.683,0,0,0,.151-.479v-.454h.05a.612.612,0,0,0,.454-.126.473.473,0,0,0,.2-.4A.426.426,0,0,0,17.133,50.652Zm-1.589-1.336v1.261h-.933Z" transform="translate(-13.3 -47.5)"/><path class="a" d="M35.514,50.272a.688.688,0,0,0-.3-.227,1.526,1.526,0,0,0-.378-.05H33.749a.561.561,0,0,0-.58.529.473.473,0,0,0,.2.4.9.9,0,0,0,.479.1h.605v.353a.265.265,0,0,1-.126.227,2.828,2.828,0,0,1-.328.126,2.15,2.15,0,0,1-.58.076,1.18,1.18,0,0,1-.933-.378,1.769,1.769,0,0,1-.353-1.16,1.88,1.88,0,0,1,.1-.656,1.446,1.446,0,0,1,.252-.479.824.824,0,0,1,.378-.277,1.17,1.17,0,0,1,.53-.1,1.053,1.053,0,0,1,.454.076.79.79,0,0,1,.277.2,4.091,4.091,0,0,1,.3.4.68.68,0,0,0,.2.176.508.508,0,0,0,.277.076.553.553,0,0,0,.429-.176.519.519,0,0,0,.177-.429,1.242,1.242,0,0,0-.126-.454,1.506,1.506,0,0,0-.378-.454,2.16,2.16,0,0,0-.63-.353A2.411,2.411,0,0,0,33.5,47.7a2.966,2.966,0,0,0-1.084.177,2.353,2.353,0,0,0-.832.529,2,2,0,0,0-.5.832A2.92,2.92,0,0,0,30.9,50.3a2.83,2.83,0,0,0,.177,1.059,2.716,2.716,0,0,0,.5.832,2.491,2.491,0,0,0,.807.529,2.7,2.7,0,0,0,1.034.177,3.455,3.455,0,0,0,.908-.1,4.751,4.751,0,0,0,.857-.353,2.658,2.658,0,0,0,.277-.176.576.576,0,0,0,.177-.252,1.119,1.119,0,0,0,.05-.328v-.908A1.259,1.259,0,0,0,35.514,50.272Z" transform="translate(-26.462 -47.65)"/></g><path class="b" d="M4.538,23H16.077a1.543,1.543,0,0,0,1.538-1.538V4.538A1.543,1.543,0,0,0,16.077,3H8.359a1.6,1.6,0,0,0-1.1.462L3.436,7.385A1.511,1.511,0,0,0,3,8.462v13A1.543,1.543,0,0,0,4.538,23Z" transform="translate(-3 -3)"/></g></g></g></svg>