<svg xmlns="http://www.w3.org/2000/svg" width="24" height="24" viewBox="0 0 24 24"><defs><style>.a{fill:#fff;}</style></defs><path class="a" d="M785.143,546.006h-4.185a.858.858,0,0,0,0,1.715h3.328v3.318a.857.857,0,0,0,1.714,0v-4.175A.859.859,0,0,0,785.143,546.006Zm-22.28,5.9a.856.856,0,0,0,.857-.855v-3.332h3.317a.858.858,0,0,0,0-1.715h-4.173a.857.857,0,0,0-.858.855v4.192A.858.858,0,0,0,762.863,551.9Zm22.275,12.2a.856.856,0,0,0-.858.854v3.333h-3.317a.858.858,0,0,0-.05,1.715h4.224a.857.857,0,0,0,.857-.855v-4.19A.857.857,0,0,0,785.138,564.1Zm-18.1,4.182h-3.328v-3.315a.857.857,0,1,0-1.713-.051.445.445,0,0,0,0,.051v4.175a.856.856,0,0,0,.854.858h4.188a.858.858,0,0,0,.05-1.715h-.05Zm.872-16.38a.88.88,0,0,0-.923.831v10.544a.928.928,0,0,0,1.846,0V552.731A.88.88,0,0,0,767.914,551.9Zm4.056,0a.881.881,0,0,0-.923.831v10.544a.928.928,0,0,0,1.846,0V552.731a.876.876,0,0,0-.916-.832Zm4.06,0a.881.881,0,0,0-.923.831v10.544a.928.928,0,0,0,1.846,0V552.731A.881.881,0,0,0,776.03,551.9Zm4.98,11.372V552.728a.928.928,0,0,0-1.845,0v10.543a.928.928,0,0,0,1.845,0Z" transform="translate(-762 -546)"/></svg>