<?xml version="1.0" encoding="utf-8"?>
<!-- Generator: Adobe Illustrator 23.0.1, SVG Export Plug-In . SVG Version: 6.00 Build 0)  -->
<svg version="1.1" id="Layer_1" xmlns="http://www.w3.org/2000/svg" xmlns:xlink="http://www.w3.org/1999/xlink" x="0px" y="0px"
	 viewBox="0 0 43.4 56.8" style="enable-background:new 0 0 43.4 56.8;" xml:space="preserve">
<style type="text/css">
	.st0{fill:none;stroke:#224795;stroke-width:1.4;stroke-miterlimit:10;}
	.st1{fill:none;stroke:#224795;stroke-width:1.4;stroke-linecap:round;stroke-miterlimit:10;}
	.st2{fill:#224795;}
</style>
<g id="Group_22679" transform="translate(-1396.3 -2900.3)">
	<g id="Group_17090" transform="translate(1109 66)">
		<g id="Group_17088" transform="translate(288 2835)">
			<path id="Path_2183" class="st0" d="M42,49V11.8c0-0.2-0.1-0.4-0.2-0.5L31.3,0.2C31.2,0.1,31,0,30.8,0H4c-2.2,0-4,1.8-4,4v47.4
				c0,2.2,1.8,4,4,4h34c2.2,0,4-1.8,4-4c0,0,0,0,0,0V49"/>
		</g>
		<g id="Group_17089" transform="translate(294.769 2856.061)">
			<g id="Group_1688" transform="translate(0 0)">
				<line id="Line_2619" class="st1" x1="28.3" y1="1.8" x2="7.5" y2="1.8"/>
				<line id="Line_2620" class="st1" x1="28.3" y1="10.4" x2="7.5" y2="10.4"/>
				<line id="Line_2621" class="st1" x1="28.3" y1="19" x2="7.5" y2="19"/>
				<path id="Path_2137" class="st2" d="M1.8,20.8c-0.5,0-1-0.2-1.3-0.6c-0.7-0.7-0.7-1.8-0.1-2.5c0,0,0,0,0.1-0.1
					c0.7-0.7,1.9-0.7,2.6,0C3.5,18,3.7,18.5,3.7,19c0,0.5-0.2,1-0.6,1.3C2.8,20.7,2.3,20.9,1.8,20.8z"/>
				<path id="Path_2138" class="st2" d="M1.8,12.3c-0.5,0-1-0.2-1.3-0.6C-0.2,11-0.2,9.9,0.5,9.2c0,0,0,0,0.1-0.1
					c0.7-0.7,1.9-0.7,2.6,0c0.3,0.3,0.5,0.8,0.5,1.3c0,0.5-0.2,1-0.6,1.3C2.8,12.1,2.3,12.3,1.8,12.3z"/>
				<path id="Path_2139" class="st2" d="M1.8,3.7c-0.5,0-1-0.2-1.3-0.6C0.2,2.8,0,2.3,0,1.8c0-0.5,0.2-1,0.6-1.3
					c0.7-0.7,1.9-0.7,2.6,0c0.3,0.3,0.5,0.8,0.5,1.3c0,0.5-0.2,1-0.6,1.3C2.8,3.5,2.3,3.7,1.8,3.7z"/>
			</g>
		</g>
	</g>
</g>
</svg>
