<svg xmlns="http://www.w3.org/2000/svg" width="24" height="24" viewBox="0 0 24 24"><defs><style>.a{fill:#eb9800;}</style></defs><circle class="a" cx="1.232" cy="1.232" r="1.232" transform="translate(13.229 8.088) rotate(180)"/><path class="a" d="M23.337,11.33a12,12,0,1,0,12,12A12,12,0,0,0,23.337,11.33Zm0,22.107A10.107,10.107,0,1,1,33.447,23.33,10.107,10.107,0,0,1,23.337,33.437Z" transform="translate(-11.34 -11.33)"/><path class="a" d="M.946,7.526a.947.947,0,0,0,.946-.946V.947A.946.946,0,1,0,0,.946H0V6.579A.947.947,0,0,0,.946,7.526Z" transform="translate(12.943 18.913) rotate(180)"/></svg>