<svg xmlns="http://www.w3.org/2000/svg" width="53" height="53.001" viewBox="0 0 53 53.001"><defs><style>.a{fill:#ff4e00;}.b,.d{fill:none;}.b{stroke:#faa782;stroke-width:0.5px;}.c{stroke:none;}</style></defs><g transform="translate(21999 10736)"><g transform="translate(-21999 -10736)"><path class="a" d="M50.575,26.5,52.9,20.437a1.658,1.658,0,0,0-.5-1.881l-5.041-4.087-1.02-6.416a1.656,1.656,0,0,0-1.378-1.375l-6.416-1.02L34.457.613a1.659,1.659,0,0,0-1.878-.5L26.51,2.438,20.445.113a1.652,1.652,0,0,0-1.878.5L14.48,5.661,8.064,6.681A1.66,1.66,0,0,0,6.689,8.056l-1.02,6.416L.624,18.559a1.657,1.657,0,0,0-.5,1.878L2.446,26.5.121,32.567a1.652,1.652,0,0,0,.5,1.878l5.045,4.084,1.02,6.416a1.656,1.656,0,0,0,1.375,1.378l6.416,1.02,4.087,5.041a1.648,1.648,0,0,0,1.881.5l6.062-2.322,6.065,2.325a1.657,1.657,0,0,0,1.881-.507l4.084-5.041,6.416-1.02a1.659,1.659,0,0,0,1.378-1.378l1.02-6.416L52.4,34.445a1.653,1.653,0,0,0,.5-1.878Z" transform="translate(-0.01 0)"/></g><g class="b" transform="translate(-21993.164 -10730.158)"><circle class="c" cx="21.027" cy="21.027" r="21.027"/><circle class="d" cx="21.027" cy="21.027" r="20.777"/></g></g></svg>