<svg xmlns="http://www.w3.org/2000/svg" width="50" height="50" viewBox="0 0 50 50"><defs><style>.a{fill:#f2f2f2;}.b{fill:#0e4194;}</style></defs><g transform="translate(-163 -731)"><circle class="a" cx="25" cy="25" r="25" transform="translate(163 731)"/><g transform="translate(176.992 745)"><g transform="translate(2.908 19.282)"><path class="b" d="M68.731,452.126a.426.426,0,1,0,.125.3A.43.43,0,0,0,68.731,452.126Z" transform="translate(-68.003 -452.001)"/></g><g transform="translate(19.308 7.679)"><path class="b" d="M453.182,180.133a.425.425,0,1,0,.125.3A.429.429,0,0,0,453.182,180.133Z" transform="translate(-452.454 -180.008)"/></g><g transform="translate(0.007)"><g transform="translate(0)"><path class="b" d="M21.723.125a.427.427,0,0,0-.3-.125H10.928A.427.427,0,0,0,10.5.427v1.22L6.457,2.731a.427.427,0,0,0-.3.522l2.1,7.821L6.438,12.887a1.279,1.279,0,0,0-1.056-.559h-4.1a1.281,1.281,0,0,0-1.28,1.28v6.953a1.281,1.281,0,0,0,1.28,1.28h4.1a1.282,1.282,0,0,0,1.242-.972l.507.442a2.149,2.149,0,0,0,1.413.529H21.422a.427.427,0,0,0,.427-.427V.427A.427.427,0,0,0,21.723.125ZM5.809,20.562a.427.427,0,0,1-.427.427h-4.1a.427.427,0,0,1-.427-.427V13.609a.427.427,0,0,1,.427-.427H2.908V18.1a.427.427,0,1,0,.853,0V13.182H5.382a.427.427,0,0,1,.427.427v6.953ZM7.09,3.444,10.5,2.53V4.111l-.286.077a.427.427,0,0,0-.3.522A1.15,1.15,0,0,1,9.1,6.117a.427.427,0,0,0-.3.523L10.463,12.8H9.606l-.441-1.726a.426.426,0,0,0-.071-.15ZM10.5,6.067v3.6L9.723,6.786A2,2,0,0,0,10.5,6.067ZM16.63,20.989H8.544a1.3,1.3,0,0,1-.852-.319l-1.03-.9v-5.9l1.862-1.862.338,1.322a.427.427,0,0,0,.413.321h8.387a.6.6,0,1,1,0,1.194h-4.3a.427.427,0,0,0,0,.853H19a.6.6,0,1,1,0,1.194H13.365a.427.427,0,1,0,0,.853h4.72a.6.6,0,1,1,0,1.194h-4.72a.427.427,0,0,0,0,.853H16.63a.6.6,0,1,1,0,1.194Zm4.365,0H17.951a1.445,1.445,0,0,0,0-1.194h.134a1.449,1.449,0,0,0,1.3-2.1,1.449,1.449,0,0,0,.78-2.263V10.025a.427.427,0,1,0-.853,0V14.88A1.451,1.451,0,0,0,19,14.846h-.014A1.449,1.449,0,0,0,17.662,12.8h-.686a2.042,2.042,0,1,0-1.6,0H13.041V4.687A2.008,2.008,0,0,0,14.57,3.157h3.209a2.008,2.008,0,0,0,1.529,1.529V6.013a.427.427,0,1,0,.853,0V4.306a.427.427,0,0,0-.427-.427,1.15,1.15,0,0,1-1.149-1.149A.427.427,0,0,0,18.16,2.3H14.189a.427.427,0,0,0-.427.427,1.15,1.15,0,0,1-1.149,1.149.427.427,0,0,0-.427.427V12.8h-.833V.854H21Zm-4.82-8.879a1.188,1.188,0,1,1,1.188-1.188A1.19,1.19,0,0,1,16.175,12.109Z" transform="translate(-0.007)"/></g></g></g></g></svg>