<svg xmlns="http://www.w3.org/2000/svg" width="18.5" height="18.533" viewBox="0 0 18.5 18.533"><defs><style>.a{stroke:#000;stroke-width:0.5px;}</style></defs><path class="a" d="M18.41.088a.308.308,0,0,0-.431,0L16.847,1.2h-7.1L.814,10.053a1.046,1.046,0,0,0,0,1.5l6.244,6.14a1.091,1.091,0,0,0,1.525,0l8.7-8.782V1.624L18.41.512A.3.3,0,0,0,18.41.088ZM16.668,8.662l-8.519,8.6a.473.473,0,0,1-.66,0l-6.244-6.14a.454.454,0,0,1,0-.65L10,1.8h6.239L14.763,3.25a1.534,1.534,0,0,0-.84-.25,1.5,1.5,0,1,0,1.525,1.5,1.473,1.473,0,0,0-.254-.826l1.474-1.45ZM14.838,4.5a.921.921,0,1,1-.523-.81l-.608.6a.3.3,0,0,0,0,.424.309.309,0,0,0,.431,0l.608-.6A.873.873,0,0,1,14.838,4.5Z" transform="translate(-0.249 0.283)"/></svg>