<svg xmlns="http://www.w3.org/2000/svg" width="16.545" height="15.732" viewBox="0 0 16.545 15.732"><defs><style>.a{fill:#00a959;}</style></defs><g transform="translate(0 0)"><path class="a" d="M-694.032,49.1c.1.011.186.016.269.032a1.034,1.034,0,0,1,.87,1q0,1.458,0,2.917a1.054,1.054,0,0,1-1.027,1.029l-.113.005v.128c0,.793-.006,1.585,0,2.378a1.057,1.057,0,0,1-.91,1.034,1.466,1.466,0,0,1-.233.014q-6.561,0-13.122,0a1.118,1.118,0,0,1-.926-.42.971.971,0,0,1-.215-.6c0-.021,0-.042,0-.063q0-4.962,0-9.924a1.022,1.022,0,0,1,.328-.782,1.1,1.1,0,0,1,.751-.3h13.188a1.134,1.134,0,0,1,.816.3.972.972,0,0,1,.322.73q0,1.194,0,2.389Zm-.99,4.976h-.148q-1.619,0-3.238,0a1.062,1.062,0,0,1-1.095-1.031c0-.969,0-1.937,0-2.906a.9.9,0,0,1,.1-.419,1.059,1.059,0,0,1,1-.607c1.079,0,2.159,0,3.238,0h.147v-.133q0-1.141,0-2.283c0-.2,0-.2-.209-.2q-6.5,0-13,0c-.206,0-.215.019-.215.2q0,4.9,0,9.807c0,.193.008.2.215.2h12.987c.03,0,.059,0,.089,0,.1-.005.125-.033.13-.122,0-.018,0-.035,0-.053V54.08Zm-1.181-.942h2.114c.033,0,.067,0,.1,0,.075-.007.1-.035.109-.107,0-.017,0-.035,0-.053V50.219c0-.014,0-.028,0-.042,0-.089-.034-.118-.128-.123-.022,0-.044,0-.067,0h-4.238c-.03,0-.06,0-.089,0-.076.008-.1.035-.108.109,0,.025,0,.049,0,.074q0,1.357,0,2.715c0,.178.008.186.193.186Z" transform="translate(709.436 -41.907)"/><path class="a" d="M-568.527-21.732h-.18c-.341,0-.683,0-1.024,0a.217.217,0,0,1-.181-.077q-.61-.666-1.224-1.328l-.116-.123c-.035.027-.066.049-.1.074q-.833.693-1.664,1.387a.254.254,0,0,1-.178.067c-.426,0-.853,0-1.28,0h-.1c.011-.048.049-.065.077-.089L-572-23.9c.112-.093.222-.187.335-.279a.668.668,0,0,1,.934.057q1.07,1.154,2.135,2.312C-568.574-21.79-568.56-21.77-568.527-21.732Z" transform="translate(580.82 24.906)"/><path class="a" d="M-656.179-34.06c.029-.026.058-.052.088-.077l3.479-2.9a.67.67,0,0,1,.966.055c.283.3.563.609.844.913.019.021.037.044.06.072l-.741.617-.7-.757-.132.108q-1.15.958-2.3,1.917a.282.282,0,0,1-.2.072c-.415,0-.831,0-1.246,0h-.11Z" transform="translate(658.649 37.214)"/><path class="a" d="M-450.039,166.958a.774.774,0,0,1-.8-.769.783.783,0,0,1,.8-.757.786.786,0,0,1,.8.767A.779.779,0,0,1-450.039,166.958Z" transform="translate(462.827 -156.509)"/></g></svg>