<svg xmlns="http://www.w3.org/2000/svg" width="23.171" height="24" viewBox="0 0 23.171 24"><defs><style>.a{fill:#ff9e00;}.b{fill:#5b5b5b;}.c{fill:#fff;}</style></defs><g transform="translate(0 0.445)"><ellipse class="a" cx="9.521" cy="9.887" rx="9.521" ry="9.887" transform="translate(1.689 -0.445)"/><path class="b" d="M19.478,14.665a9.443,9.443,0,1,0-15.784,0L0,20.067l4.227-.79.788,4.239,3.483-5.1a9.419,9.419,0,0,0,6.175,0l3.483,5.1.788-4.239,4.227.79ZM5.762,19.972l-.43-2.312-2.305.431,1.556-2.275a9.508,9.508,0,0,0,2.625,2.043ZM3.525,9.471a8.061,8.061,0,1,1,8.061,8.085A8.082,8.082,0,0,1,3.525,9.471ZM17.84,17.66l-.43,2.312-1.445-2.113a9.508,9.508,0,0,0,2.625-2.043l1.556,2.275Zm0,0" transform="translate(0 0.039)"/><path class="c" d="M149.269,134.54l-2.393-2.253-1.041.98,3.434,3.233,7.019-6.61-1.041-.98Zm0,0" transform="translate(-139.476 -122.95)"/></g></svg>