<svg xmlns="http://www.w3.org/2000/svg" width="50" height="50" viewBox="0 0 50 50"><defs><style>.a{fill:#f2f2f2;}.b{fill:#0e4194;stroke:#004d9c;stroke-width:0.21px;}</style></defs><g transform="translate(-794 -807)"><path class="a" d="M25,0A25,25,0,1,1,0,25,25,25,0,0,1,25,0Z" transform="translate(794 807)"/><g transform="translate(762.006 821)"><g transform="translate(47.994 0)"><g transform="translate(0 0)"><path class="b" d="M65.3,2.912V2.9a.33.33,0,0,0-.1-.15.347.347,0,0,0-.115-.078l-.033-.017L56.771.018a.377.377,0,0,0-.228,0L48.258,2.654a.377.377,0,0,0-.264.359v9.038a.377.377,0,0,0,.264.359l8.285,2.636a.377.377,0,0,0,.228,0l1.506-.479a.377.377,0,1,0-.228-.718l-1.017.323V12.8a.377.377,0,1,0-.753,0v1.368l-7.532-2.4V3.288l2.511-.8L58.3,4.73l-1.645.523-6.289-2a.377.377,0,1,0-.228.718l6.141,1.953V11.3a.377.377,0,0,0,.753,0V5.924l2.134-.678v2.5a.377.377,0,0,0,.377.377.385.385,0,0,0,.113-.018l.879-.28a.377.377,0,1,0-.228-.718l-.388.124V5.007l1.945-.619V6.61l-.428.136a.377.377,0,0,0,.113.735.367.367,0,0,0,.113-.018l.691-.22a.377.377,0,0,0,.264-.359V4.147l1.948-.619v8.247l-.49.156a.377.377,0,0,0,.205.725l.021-.007.753-.24a.377.377,0,0,0,.264-.359V3.013A.377.377,0,0,0,65.3,2.912ZM59.543,4.335,52.5,2.094l1.457-.464L61,3.871Zm2.7-.859L55.2,1.235,56.656.772,63.7,3.013Z" transform="translate(-47.994 0)"/></g></g><g transform="translate(49.5 9.415)"><g transform="translate(0)"><path class="b" d="M80.371,199.992a.377.377,0,0,0-.377.377v1.13a.377.377,0,1,0,.753,0v-1.13A.377.377,0,0,0,80.371,199.992Z" transform="translate(-79.994 -199.992)"/></g></g><g transform="translate(51.007 9.791)"><g transform="translate(0)"><path class="b" d="M112.371,207.992a.377.377,0,0,0-.377.377v1.13a.377.377,0,0,0,.753,0v-1.13A.377.377,0,0,0,112.371,207.992Z" transform="translate(-111.994 -207.992)"/></g></g><g transform="translate(50.254 10.544)"><g transform="translate(0)"><path class="b" d="M108.427,223.992a.377.377,0,0,0-.377.377v5.272a3.393,3.393,0,0,1-3.389,3.389h-4.519a.377.377,0,0,0-.377.377v.783l-2.733-1.913,2.733-1.913v.783a.377.377,0,0,0,.377.377h3.389a2.262,2.262,0,0,0,2.26-2.26v-1.506a.377.377,0,1,0-.753,0v1.506a1.506,1.506,0,0,1-1.506,1.506h-3.013v-1.13a.377.377,0,0,0-.592-.308l-3.766,2.636a.377.377,0,0,0,0,.617l3.766,2.636a.377.377,0,0,0,.592-.308v-1.13h4.143a4.147,4.147,0,0,0,4.143-4.143v-5.272A.377.377,0,0,0,108.427,223.992Z" transform="translate(-95.999 -223.992)"/></g></g><g transform="translate(59.292 11.674)"><g transform="translate(0)"><path class="b" d="M288.371,247.992a.377.377,0,0,0-.377.377v.753a.377.377,0,0,0,.753,0v-.753A.377.377,0,0,0,288.371,247.992Z" transform="translate(-287.994 -247.992)"/></g></g><g transform="translate(62.305 8.285)"><g transform="translate(0)"><path class="b" d="M352.371,175.992a.377.377,0,0,0-.377.377v.753a.377.377,0,0,0,.753,0v-.753A.377.377,0,0,0,352.371,175.992Z" transform="translate(-351.994 -175.992)"/></g></g><g transform="translate(60.798 9.791)"><path class="b" d="M320.371,207.992a.377.377,0,0,0-.377.377v3.013a.377.377,0,0,0,.753,0v-3.013A.377.377,0,0,0,320.371,207.992Z" transform="translate(-319.994 -207.992)"/></g></g></g></svg>