<svg xmlns="http://www.w3.org/2000/svg" width="50" height="50" viewBox="0 0 50 50"><defs><style>.a{fill:#f2f2f2;}.b{fill:#0e4194;}</style></defs><g transform="translate(-501 -807)"><path class="a" d="M25,0A25,25,0,1,1,0,25,25,25,0,0,1,25,0Z" transform="translate(501 807)"/><g transform="translate(517.17 822)"><g transform="translate(0 0)"><path class="b" d="M41.079,3.283l-.027,0A24.185,24.185,0,0,1,32.547.058a.389.389,0,0,0-.408,0,23.9,23.9,0,0,1-8.453,3.211l-.079.014a.389.389,0,0,0-.322.383V8.761A11.425,11.425,0,0,0,32.26,19.92a.391.391,0,0,0,.167,0A11.431,11.431,0,0,0,41.4,8.756V3.666A.389.389,0,0,0,41.079,3.283Zm-.456,5.473a10.719,10.719,0,0,1-8.28,10.385,10.712,10.712,0,0,1-8.28-10.38V3.992A24.672,24.672,0,0,0,32.344.845a24.947,24.947,0,0,0,8.279,3.146Z" transform="translate(-23.285 0)"/></g></g><g transform="translate(518.932 824.045)"><g transform="translate(0)"><path class="b" d="M246.153,53.343a.388.388,0,0,0,.192-.051l0,0,0,0a.389.389,0,0,0-.384-.677l-.009,0a.389.389,0,0,0,.193.728Z" transform="translate(-238.865 -52.561)"/><path class="b" d="M74.127,73.284a25.675,25.675,0,0,1-5.272,1.84.389.389,0,0,0-.3.379v3.648a9.561,9.561,0,0,0,.084,1.265.389.389,0,1,0,.771-.1,8.776,8.776,0,0,1-.078-1.162v-3.34a26.454,26.454,0,0,0,5.13-1.824.389.389,0,1,0-.335-.7Z" transform="translate(-68.553 -72.441)"/><path class="b" d="M289.618,121.23a.389.389,0,0,0-.389.389v3.648a8.937,8.937,0,0,1-5.209,8.089.389.389,0,1,0,.325.707,9.729,9.729,0,0,0,4.1-3.548,9.61,9.61,0,0,0,1.567-5.249v-3.648A.389.389,0,0,0,289.618,121.23Z" transform="translate(-275.415 -118.557)"/><path class="b" d="M246.3,445.34l-.015,0a.389.389,0,1,0,.2.752l.015,0a.389.389,0,0,0-.2-.752Z" transform="translate(-239.091 -430.039)"/></g></g></g></svg>