<?xml version="1.0" encoding="utf-8"?>
<!-- Generator: Adobe Illustrator 23.0.1, SVG Export Plug-In . SVG Version: 6.00 Build 0)  -->
<svg version="1.1" id="Layer_1" xmlns="http://www.w3.org/2000/svg" xmlns:xlink="http://www.w3.org/1999/xlink" x="0px" y="0px"
	 viewBox="0 0 54.6 51.4" style="enable-background:new 0 0 54.6 51.4;" xml:space="preserve">
<style type="text/css">
	.st0{fill:none;stroke:#224795;stroke-width:1.4;stroke-linecap:round;stroke-linejoin:round;stroke-miterlimit:10;}
	.st1{fill:none;stroke:#224795;stroke-width:1.4;}
	.st2{fill:#224795;}
</style>
<g id="Group_22681" transform="translate(-400.087 -137.3)">
	<path id="Path_2273" class="st0" d="M440.9,186.3L440.9,186.3c-1.5,1.7-2.7,1.7-5.1,1.7h-0.6c-3.2-0.3-6.3-1.2-9.1-2.7
		c-6.2-3-11.6-7.2-16-12.5c-3.4-3.8-6.1-8.2-7.9-13c-1-2.4-1.5-5-1.4-7.6c0-1.7,0.6-3.3,1.9-4.4l0,0c1.4-1.4,3.6-1.4,5,0
		c0.1,0.1,0.1,0.2,0.2,0.2l5.7,7.3c1.1,1.4,1,3.4-0.2,4.7l-2.9,2.9c0,0,7.6,10.4,15.3,15.2l2.9-2.9c1.3-1.3,3.4-1.4,4.8-0.2l7.3,6
		c1.5,1.3,1.6,3.6,0.2,5C441,186.2,441,186.2,440.9,186.3z"/>
	<path id="path-38" class="st1" d="M425.6,167.2c1.9-1.7,2.4-5.6,2.5-8.3c-4.1-2.1-6.8-5.5-6.8-9.3c0-6.3,7.3-11.5,16.3-11.5
		s16.3,5.1,16.3,11.5c0,6.3-7.3,11.5-16.3,11.5c-0.9,0-1.9-0.1-2.8-0.2c-3.6,2.6-9.3,6.8-9.7,6.8
		C425.2,167.6,425.3,167.5,425.6,167.2z"/>
	<circle id="ellipse-1" class="st2" cx="431.7" cy="149.6" r="2.6"/>
	<circle id="ellipse-1-2" class="st2" cx="437.7" cy="149.6" r="2.6"/>
	<circle id="ellipse-1-3" class="st2" cx="443.8" cy="149.6" r="2.6"/>
</g>
</svg>
