<?xml version="1.0" encoding="utf-8"?>
<!-- Generator: Adobe Illustrator 23.0.1, SVG Export Plug-In . SVG Version: 6.00 Build 0)  -->
<svg version="1.1" id="Group_22678" xmlns="http://www.w3.org/2000/svg" xmlns:xlink="http://www.w3.org/1999/xlink" x="0px"
	 y="0px" viewBox="0 0 55.5 41.6" style="enable-background:new 0 0 55.5 41.6;" xml:space="preserve">
<style type="text/css">
	.st0{fill:none;stroke:#224795;stroke-width:1.4;stroke-miterlimit:10;}
	.st1{fill:none;}
	.st2{fill:none;stroke:#224795;stroke-width:1.4;}
</style>
<path id="Path_2085" class="st0" d="M53.7,30.5c-6.4,0.1-11.7-3.8-11.9-8.9c-0.1-5.2,5-9.4,11.3-9.6h0.7c1.3,0,0.9,4.2,0.9,9.2
	s0.4,9.2-0.9,9.2L53.7,30.5z"/>
<g id="rectangle-21" transform="translate(0)">
	<path class="st1" d="M10,0h21.6c5.5,0,10,4.5,10,10v21.6c0,5.5-4.5,10-10,10H10c-5.5,0-10-4.5-10-10V10C0,4.5,4.5,0,10,0z"/>
	<path class="st2" d="M10,0.7h21.6c5.1,0,9.3,4.2,9.3,9.3v21.6c0,5.1-4.2,9.3-9.3,9.3H10c-5.1,0-9.3-4.2-9.3-9.3V10
		C0.7,4.9,4.9,0.7,10,0.7z"/>
</g>
</svg>
