<?xml version="1.0" encoding="utf-8"?>
<!-- Generator: Adobe Illustrator 23.0.1, SVG Export Plug-In . SVG Version: 6.00 Build 0)  -->
<svg version="1.1" id="Layer_1" xmlns="http://www.w3.org/2000/svg" xmlns:xlink="http://www.w3.org/1999/xlink" x="0px" y="0px"
	 viewBox="0 0 42.2 25.5" style="enable-background:new 0 0 42.2 25.5;" xml:space="preserve">
<style type="text/css">
	.st0{fill:none;stroke:#224795;stroke-width:1.4;stroke-miterlimit:10;}
	.st1{fill:none;stroke:#214796;stroke-width:1.4;stroke-linecap:round;stroke-linejoin:round;stroke-miterlimit:10;}
	.st2{fill:none;stroke:#214796;stroke-width:1.4;stroke-linecap:round;stroke-miterlimit:10;}
	.st3{fill:none;stroke:#224795;stroke-width:1.4;stroke-linecap:round;stroke-miterlimit:10;}
	.st4{fill:#214796;}
</style>
<g id="Group_17012" transform="translate(-1396.32 -1673.231)">
	<path id="Path_10716" class="st0" d="M1429.4,1690.2h-2.7c-0.6,0-1.2-0.2-1.8-0.5c-1-0.6-1.8-1.5-2-2.7c-0.3-1.1-0.1-2.4,0.5-3.3
		c0.8-1.3,2.1-2,3.6-1.9h2.3v-0.1v-6.5c0-0.2,0-0.3-0.1-0.5c-0.2-0.4-0.6-0.7-1.1-0.7H1398c-0.6,0-1.2,0.5-1.2,1.1v0.1
		c0,2.9,0,5.7,0,8.6v13.1c0,0.6,0.4,1.1,1.1,1.2l0,0h30.2c0.3,0,0.6-0.1,0.9-0.4c0.2-0.3,0.3-0.6,0.3-0.9v-6.2
		C1429.4,1690.3,1429.4,1690.2,1429.4,1690.2z"/>
	<line id="Line_5798" class="st1" x1="1405.6" y1="1678.7" x2="1415" y2="1678.7"/>
	<line id="Line_5799" class="st1" x1="1405.6" y1="1683" x2="1415" y2="1683"/>
	<path id="Path_10717" class="st1" d="M1412.8,1694.1l-5.7-6.8h1.6c2.3-0.1,4.1-2,4.1-4.3l0,0c0-2.3-1.8-4.2-4.1-4.3h-3.1"/>
	<path id="Path_10718" class="st2" d="M1435.2,1679.4c3.5,3.7,3.5,9.5,0,13.2"/>
	<path id="Path_10719" class="st3" d="M1433.1,1681.9c2.2,2.3,2.2,5.9,0,8.2"/>
	<path id="Path_10720" class="st3" d="M1431.1,1684.1c1,1,1,2.7,0,3.7"/>
	<path id="Path_10721" class="st4" d="M1427.8,1685.3c0.3-0.4,0.9-0.4,1.3,0l0,0c0.4,0.4,0.4,1,0,1.4c-0.3,0.4-0.9,0.4-1.3,0l0,0
		C1427.5,1686.3,1427.5,1685.7,1427.8,1685.3z"/>
</g>
</svg>
