<?xml version="1.0" encoding="utf-8"?>
<!-- Generator: Adobe Illustrator 23.0.1, SVG Export Plug-In . SVG Version: 6.00 Build 0)  -->
<svg version="1.1" id="Layer_1" xmlns="http://www.w3.org/2000/svg" xmlns:xlink="http://www.w3.org/1999/xlink" x="0px" y="0px"
	 viewBox="0 0 37.3 51.4" style="enable-background:new 0 0 37.3 51.4;" xml:space="preserve">
<style type="text/css">
	.st0{fill:none;stroke:#214796;stroke-width:1.4;stroke-miterlimit:10;}
	.st1{fill:#224795;}
</style>
<g id="Group_22680" transform="translate(-31.299 -5159.3)">
	<path id="Path_2331" class="st0" d="M50,5160c-9.9-0.1-17.9,7.9-18,17.8c0,0,0,0,0,0.1c0,9.9,12.6,25.9,16.7,31.5
		c0.6,0.7,1.6,0.8,2.3,0.3c0.1-0.1,0.2-0.2,0.3-0.3c4.1-5.6,16.7-21.3,16.7-31.5c0-9.8-8-17.8-17.8-17.8C50.1,5160,50,5160,50,5160z
		"/>
	<path id="Path_2332" class="st1" d="M50,5184.6c-3.9,0-7.1-3.2-7.1-7.1c0-3.9,3.2-7.1,7.1-7.1s7.1,3.2,7.1,7.1
		C57,5181.5,53.8,5184.6,50,5184.6z"/>
</g>
</svg>
