<?xml version="1.0" encoding="utf-8"?>
<!-- Generator: Adobe Illustrator 23.0.1, SVG Export Plug-In . SVG Version: 6.00 Build 0)  -->
<svg version="1.1" id="Layer_1" xmlns="http://www.w3.org/2000/svg" xmlns:xlink="http://www.w3.org/1999/xlink" x="0px" y="0px"
	 viewBox="0 0 55 40" style="enable-background:new 0 0 55 40;" xml:space="preserve">
<style type="text/css">
	.st0{fill:none;stroke:#224795;stroke-width:1.4;stroke-linecap:round;stroke-miterlimit:10;}
	.st1{fill:#224795;}
</style>
<g id="Group_22682" transform="translate(-130.7 -1360)">
	<line id="Line_2527" class="st0" x1="185" y1="1363.5" x2="145.1" y2="1363.5"/>
	<line id="Line_2528" class="st0" x1="185" y1="1380" x2="145.1" y2="1380"/>
	<line id="Line_2529" class="st0" x1="185" y1="1396.5" x2="145.1" y2="1396.5"/>
	<path id="Path_2072" class="st1" d="M134.2,1400c-0.9,0-1.9-0.4-2.5-1.1c-1.4-1.3-1.4-3.5-0.1-4.8c0,0,0.1-0.1,0.1-0.1
		c1.4-1.3,3.6-1.3,5.1,0c0.6,0.7,1,1.6,1,2.5c0,0.9-0.4,1.9-1.1,2.5C136.1,1399.6,135.2,1400,134.2,1400z"/>
	<path id="Path_2073" class="st1" d="M134.2,1383.5c-0.9,0-1.9-0.4-2.5-1.1c-1.4-1.3-1.4-3.5-0.1-4.8c0,0,0.1-0.1,0.1-0.1
		c1.4-1.3,3.6-1.3,5.1,0c0.6,0.7,1,1.6,1,2.5c0,0.9-0.4,1.9-1.1,2.5C136.1,1383.2,135.2,1383.5,134.2,1383.5z"/>
	<path id="Path_2074" class="st1" d="M134.2,1367c-0.9,0-1.9-0.4-2.5-1.1c-0.7-0.6-1.1-1.5-1.1-2.5c0-0.9,0.4-1.8,1.1-2.5
		c1.4-1.3,3.6-1.3,5.1,0c0.6,0.7,1,1.6,1,2.5c0,0.9-0.4,1.9-1.1,2.5C136.1,1366.7,135.2,1367.1,134.2,1367z"/>
</g>
</svg>
