<?xml version="1.0" encoding="utf-8"?>
<!-- Generator: Adobe Illustrator 23.0.1, SVG Export Plug-In . SVG Version: 6.00 Build 0)  -->
<svg version="1.1" id="Layer_1" xmlns="http://www.w3.org/2000/svg" xmlns:xlink="http://www.w3.org/1999/xlink" x="0px" y="0px"
	 viewBox="0 0 54 47.4" style="enable-background:new 0 0 54 47.4;" xml:space="preserve">
<style type="text/css">
	.st0{fill:none;stroke:#224795;stroke-width:2.6;stroke-linecap:round;stroke-linejoin:round;stroke-miterlimit:10;}
	.st1{fill:none;stroke:#224795;stroke-width:1.4;stroke-linecap:round;stroke-linejoin:round;stroke-miterlimit:10;}
</style>
<g id="Group_22633" transform="translate(-999.288 -3551.288)">
	<line id="Line_2604" class="st0" x1="1025.7" y1="3568.3" x2="1018.5" y2="3584.8"/>
	<ellipse id="Ellipse_592" class="st0" cx="1015" cy="3573.5" rx="2.6" ry="2.6"/>
	<ellipse id="Ellipse_593" class="st0" cx="1029.1" cy="3579.6" rx="2.6" ry="2.6"/>
	<path id="Path_2129" class="st1" d="M1052.2,3576.1l-3.4-7.1c-0.5,0.3-1.1,0.4-1.7,0.4c-2.7,0.2-4.9-1.9-5.1-4.5
		c-0.1-1.9,0.9-3.7,2.5-4.6l-3-6.4c-0.8-1.7-2.9-2.5-4.6-1.7h-0.1L1002,3569c-1.7,0.8-2.5,2.9-1.7,4.6v0.1l3.3,7
		c0.6-0.3,1.2-0.5,1.9-0.5c2.6-0.2,4.9,1.9,5.1,4.5c0.1,2-1,3.8-2.8,4.7l3.2,6.6c0.8,1.7,2.9,2.5,4.6,1.7c0,0,0.1,0,0.1-0.1
		l34.8-16.8C1052.3,3580,1053,3577.9,1052.2,3576.1L1052.2,3576.1z"/>
	<line id="Line_2605" class="st0" x1="1031.6" y1="3559.6" x2="1032.8" y2="3562.1"/>
	<line id="Line_2606" class="st0" x1="1035.9" y1="3568.7" x2="1037.2" y2="3571.3"/>
	<line id="Line_2607" class="st0" x1="1040.3" y1="3578" x2="1041.5" y2="3580.5"/>
</g>
</svg>
