<?xml version="1.0" encoding="utf-8"?>
<!-- Generator: Adobe Illustrator 23.0.1, SVG Export Plug-In . SVG Version: 6.00 Build 0)  -->
<svg version="1.1" id="Layer_1" xmlns="http://www.w3.org/2000/svg" xmlns:xlink="http://www.w3.org/1999/xlink" x="0px" y="0px"
	 viewBox="0 0 44.5 44.4" style="enable-background:new 0 0 44.5 44.4;" xml:space="preserve">
<style type="text/css">
	.st0{fill:none;stroke:#224795;stroke-width:1.4;stroke-linecap:round;stroke-linejoin:bevel;stroke-miterlimit:10;}
	.st1{fill:none;stroke:#224795;stroke-width:1.6;stroke-linecap:round;stroke-linejoin:round;stroke-miterlimit:10;}
	.st2{fill:none;stroke:#224795;stroke-width:1.4;stroke-linecap:round;stroke-miterlimit:10;}
</style>
<g id="recharge-blue" transform="translate(-129.5 -594.265)">
	<line id="Line_3026" class="st0" x1="133.2" y1="627.8" x2="131.8" y2="636.3"/>
	<line id="Line_3027" class="st0" x1="133.2" y1="627.8" x2="142.3" y2="629.2"/>
	<line id="Line_3028" class="st1" x1="145.6" y1="606.7" x2="158" y2="606.7"/>
	<line id="Line_3029" class="st1" x1="145.6" y1="612.1" x2="158" y2="612.1"/>
	<path id="Path_2334" class="st1" d="M155.1,626l-7.5-8.6h2.1c3,0,5.4-2.4,5.4-5.4c0,0,0,0,0,0l0,0c0-3-2.4-5.4-5.4-5.4c0,0,0,0,0,0
		h-4.1"/>
	<path id="Path_2335" class="st2" d="M133.6,628.1c6.6,10,20,12.8,30,6.2c0,0,0,0,0,0c3.1-2,5.6-4.8,7.3-8.1
		c5.4-10.5,1.3-23.4-9.2-28.8c0,0,0,0,0,0c-0.1,0-0.1,0-0.1-0.1c-10.6-5.4-23.6-1.3-29.1,9.3c-1.2,2.4-2,4.9-2.3,7.6"/>
</g>
</svg>
