<?xml version="1.0" encoding="utf-8"?>
<!-- Generator: Adobe Illustrator 23.0.1, SVG Export Plug-In . SVG Version: 6.00 Build 0)  -->
<svg version="1.1" id="Layer_1" xmlns="http://www.w3.org/2000/svg" xmlns:xlink="http://www.w3.org/1999/xlink" x="0px" y="0px"
	 viewBox="0 0 39 41.4" style="enable-background:new 0 0 39 41.4;" xml:space="preserve">
<style type="text/css">
	.st0{fill:none;stroke:#224795;stroke-width:1.4;stroke-miterlimit:10;}
</style>
<g id="Group_1609" transform="translate(-780.162 -5893.3)">
	<path id="Path_2221" class="st0" d="M817.1,5918.3l-1.4-0.8c-0.9-0.6-1.5-1.6-1.4-2.7v-1.7c-0.1-1.1,0.5-2.1,1.4-2.7l1.4-0.8
		c0.3-0.2,0.6-0.4,0.9-0.8c0.6-0.9,0.7-2.1,0.2-3l-2.2-3.6c-0.8-1.3-2.5-1.8-3.8-1.1c0,0-0.1,0-0.1,0.1l-1.3,0.8
		c-0.9,0.5-2.1,0.5-3-0.1c-0.5-0.4-1-0.7-1.6-0.9c-1-0.5-1.5-1.5-1.5-2.5v-1.5c0-1.6-1.3-2.9-2.9-2.9l0,0h-4.1
		c-1.6,0-2.9,1.3-2.9,2.9l0,0v1.5c0,1.1-0.6,2-1.5,2.5c-0.6,0.3-1.1,0.6-1.6,0.9c-0.9,0.6-2,0.6-3,0.1l-1.4-0.8
		c-0.3-0.2-0.7-0.3-1.1-0.4c-1.1-0.1-2.1,0.4-2.7,1.3l-2.2,3.8l0,0c-0.7,1.3-0.2,3,1.1,3.7l1.3,0.8c0.9,0.6,1.5,1.6,1.4,2.7v1.7
		c0.1,1.1-0.5,2.1-1.4,2.7l-1.3,0.8c-1.3,0.8-1.8,2.5-1.1,3.8c0,0,0,0.1,0.1,0.1l2.1,3.7c0.2,0.3,0.4,0.6,0.8,0.9
		c0.5,0.3,1.1,0.5,1.6,0.5s1-0.1,1.4-0.4l1.4-0.8c0.9-0.5,2.1-0.5,3,0.1c0.5,0.4,1,0.7,1.6,0.9c0.9,0.5,1.5,1.4,1.5,2.5v1.5
		c0,1.6,1.3,2.9,2.9,2.9l0,0h4.2c1.6,0,2.9-1.3,2.9-2.9l0,0v-1.5c0-1.1,0.6-2,1.5-2.5c0.6-0.3,1.1-0.6,1.6-0.9c0.9-0.6,2-0.6,3-0.1
		l1.4,0.8c0.4,0.2,0.9,0.4,1.4,0.4c1,0,1.9-0.5,2.4-1.4l2.2-3.7c0.5-1,0.5-2.1-0.2-3C817.7,5918.8,817.4,5918.5,817.1,5918.3z"/>
	<circle id="Ellipse_602" class="st0" cx="799.7" cy="5914" r="7.6"/>
</g>
</svg>
