<svg xmlns="http://www.w3.org/2000/svg" width="42.676" height="14" viewBox="0 0 42.676 14"><defs><style>.a{fill:#5e5f5d;}.b{fill:#5b5d5e;}.c{fill:#236f30;}.d{fill:#e26018;}.e{fill:#5b5c5e;}</style></defs><g transform="translate(-523.601 -53.161)"><g transform="translate(523.601 53.161)"><path class="a" d="M547.978,148.249h.3L548,149.4a.492.492,0,0,0,.023.385.348.348,0,0,0,.315.129.546.546,0,0,0,.375-.129.718.718,0,0,0,.208-.385l.276-1.152h.3l-.282,1.18a1.018,1.018,0,0,1-.327.576.946.946,0,0,1-.616.191.618.618,0,0,1-.524-.19.685.685,0,0,1-.05-.576Z" transform="translate(-544.616 -136.222)"/><path class="a" d="M561.864,149.627l.472-1.971.9,1.159c.024.033.048.068.072.1s.048.079.073.126l.315-1.315h.278l-.472,1.97-.915-1.18a1.063,1.063,0,0,1-.069-.1,1.116,1.116,0,0,1-.059-.111l-.316,1.319Z" transform="translate(-557.024 -135.704)"/><path class="a" d="M578.327,150.145l.454-1.9h.3l-.454,1.9Z" transform="translate(-571.405 -136.222)"/><path class="a" d="M584.116,150.145l.454-1.9H585.6l-.063.262h-.731l-.113.473h.731l-.065.271h-.731l-.213.891Z" transform="translate(-576.462 -136.222)"/><path class="a" d="M594.888,150.145l.454-1.9h.3l-.454,1.9Z" transform="translate(-585.871 -136.222)"/><path class="a" d="M600.678,150.145l.454-1.9h1.032l-.063.262h-.731l-.114.476h.731l-.065.271h-.731l-.147.613h.731l-.066.276Z" transform="translate(-590.929 -136.222)"/><path class="a" d="M611.56,150.144l.454-1.9h.405a2.435,2.435,0,0,1,.546.041.555.555,0,0,1,.25.137.578.578,0,0,1,.166.322,1.1,1.1,0,0,1-.025.45,1.385,1.385,0,0,1-.19.448,1.133,1.133,0,0,1-.32.322.982.982,0,0,1-.309.137,2.2,2.2,0,0,1-.491.041h-.486Zm.367-.279h.253a1.359,1.359,0,0,0,.319-.028.607.607,0,0,0,.2-.1.805.805,0,0,0,.212-.229,1.069,1.069,0,0,0,.128-.318.855.855,0,0,0,.023-.318.424.424,0,0,0-.1-.229.347.347,0,0,0-.165-.1,1.4,1.4,0,0,0-.335-.028h-.217Z" transform="translate(-600.435 -136.221)"/><path class="a" d="M633.348,149.294l-.2.851h-.281l.454-1.9h.454a1.344,1.344,0,0,1,.292.023.348.348,0,0,1,.148.074.321.321,0,0,1,.093.178.573.573,0,0,1-.01.247.766.766,0,0,1-.109.249.6.6,0,0,1-.179.179.573.573,0,0,1-.183.074,1.514,1.514,0,0,1-.3.022h-.173Zm.079-.252h.077a.756.756,0,0,0,.347-.056.29.29,0,0,0,.131-.2q.036-.151-.038-.214a.529.529,0,0,0-.313-.062h-.077Z" transform="translate(-619.043 -136.222)"/><path class="a" d="M642.112,149.626l-.093-.488h-.732l-.331.488h-.315l1.367-1.971.422,1.971Zm-.652-.745h.515l-.086-.433c0-.028-.008-.059-.011-.1s-.005-.076-.007-.12c-.02.041-.04.08-.06.116s-.04.069-.059.1Z" transform="translate(-625.836 -135.702)"/><path class="a" d="M657.025,150.145l.208-.868-.376-1.028h.316l.233.644c.005.017.012.038.019.065s.015.056.022.087c.019-.03.038-.059.057-.086s.039-.051.059-.074l.55-.636h.3l-.883,1.028-.207.868Z" transform="translate(-640.001 -136.222)"/><path class="a" d="M667.667,148.653c0-.014,0-.055.013-.122s.011-.1.015-.137a1.251,1.251,0,0,1-.063.13,1.471,1.471,0,0,1-.084.132l-.726,1.01-.237-1.031c-.01-.042-.018-.083-.023-.123s-.009-.079-.01-.118c-.01.04-.024.081-.04.125s-.035.089-.057.137l-.422.934h-.276l.91-1.977.259,1.2c0,.019.009.05.016.094s.014.1.023.163q.046-.082.133-.207l.035-.052.819-1.2-.026,1.977h-.279Z" transform="translate(-647.776 -135.666)"/><path class="a" d="M684.8,150.145l.454-1.9h1.032l-.063.262H685.5l-.114.476h.731l-.065.271h-.731l-.147.613h.731l-.066.276Z" transform="translate(-664.414 -136.222)"/><path class="a" d="M695.683,149.627l.472-1.971.9,1.159c.024.033.048.068.072.1s.048.079.073.126l.315-1.315h.278l-.472,1.97-.915-1.18a1.062,1.062,0,0,1-.069-.1,1.079,1.079,0,0,1-.059-.111l-.316,1.319Z" transform="translate(-673.917 -135.704)"/><path class="a" d="M714.454,148.51l-.392,1.635h-.3l.391-1.635h-.491l.063-.262h1.28l-.063.262Z" transform="translate(-689.623 -136.222)"/><path class="a" d="M722.385,149.471l.267-.114a.258.258,0,0,0,.078.194.315.315,0,0,0,.217.067.36.36,0,0,0,.231-.077.354.354,0,0,0,.128-.2q.04-.167-.2-.3l-.051-.029a.931.931,0,0,1-.341-.277.4.4,0,0,1-.029-.3.648.648,0,0,1,.243-.376.7.7,0,0,1,.437-.144.565.565,0,0,1,.323.081.307.307,0,0,1,.135.233l-.264.124a.287.287,0,0,0-.091-.131.234.234,0,0,0-.142-.041.338.338,0,0,0-.208.065.3.3,0,0,0-.113.173q-.041.171.237.319l.033.018a.793.793,0,0,1,.316.253.408.408,0,0,1,.028.309.744.744,0,0,1-.268.428.765.765,0,0,1-.485.159.522.522,0,0,1-.36-.112.4.4,0,0,1-.121-.318" transform="translate(-697.242 -135.927)"/><path class="a" d="M739.937,150.145l.454-1.9h.3l-.454,1.9Z" transform="translate(-712.574 -136.222)"/><path class="a" d="M745.727,149.627l.472-1.971.9,1.159q.036.049.072.1c.024.037.048.079.073.126l.315-1.315h.278l-.472,1.97-.916-1.18a1.072,1.072,0,0,1-.069-.1,1.056,1.056,0,0,1-.059-.111L746,149.627Z" transform="translate(-717.631 -135.704)"/><path class="a" d="M764.5,148.51l-.391,1.635h-.3l.391-1.635H763.7l.062-.262h1.281l-.063.262Z" transform="translate(-733.335 -136.222)"/><path class="a" d="M772.549,150.145l.454-1.9h1.031l-.063.262h-.731l-.114.476h.731l-.065.271h-.731l-.147.613h.731l-.066.276Z" transform="translate(-741.061 -136.222)"/><path class="a" d="M783.915,149.3l-.2.848h-.281l.454-1.9h.419a1.207,1.207,0,0,1,.28.024.337.337,0,0,1,.154.082.329.329,0,0,1,.09.177.56.56,0,0,1-.01.238.692.692,0,0,1-.193.357.61.61,0,0,1-.354.155l.43.863h-.34l-.412-.848Zm.076-.24h.054a.672.672,0,0,0,.33-.057.305.305,0,0,0,.126-.2c.026-.1.015-.178-.031-.221a.463.463,0,0,0-.3-.064h-.054Z" transform="translate(-750.566 -136.223)"/><path class="a" d="M794.882,150.145l.454-1.9h1.032l-.063.262h-.731l-.113.473h.731l-.065.271H795.4l-.213.891Z" transform="translate(-760.569 -136.222)"/><path class="a" d="M804.37,149.626l-.093-.488h-.732l-.332.488H802.9l1.367-1.971.422,1.971Zm-.653-.745h.515l-.086-.433c0-.028-.008-.059-.011-.1s-.005-.076-.006-.12c-.02.041-.04.08-.06.116s-.04.069-.059.1Z" transform="translate(-767.571 -135.702)"/><path class="a" d="M820.672,148.4a.66.66,0,0,0-.23-.167.707.707,0,0,0-.285-.056.817.817,0,0,0-.541.2.94.94,0,0,0-.314.517.608.608,0,0,0,.064.506.474.474,0,0,0,.419.2.942.942,0,0,0,.327-.06,1.335,1.335,0,0,0,.328-.18l-.083.348a1.131,1.131,0,0,1-.616.178.926.926,0,0,1-.375-.071.652.652,0,0,1-.266-.21.7.7,0,0,1-.131-.321,1.009,1.009,0,0,1,.021-.393,1.282,1.282,0,0,1,.166-.392,1.33,1.33,0,0,1,.287-.322,1.263,1.263,0,0,1,.366-.212,1.154,1.154,0,0,1,.4-.072.881.881,0,0,1,.3.049.8.8,0,0,1,.252.147Z" transform="translate(-781.6 -135.908)"/><path class="a" d="M832.737,150.145l.454-1.9h1.032l-.063.262h-.731l-.114.476h.731l-.065.271h-.731l-.147.613h.731l-.066.276Z" transform="translate(-793.636 -136.222)"/><path class="b" d="M775.144,63.535h-2.065l2.873-10.375h2.066Z" transform="translate(-741.523 -53.161)"/><path class="b" d="M678.034,53.7a.765.765,0,0,0-.664-.3H666.012l-.563,2.032h10.333l-.6,2.172h-8.266v0h-2.066l-1.714,6.19H665.2l1.151-4.155h9.292a1.321,1.321,0,0,0,.82-.3,1.38,1.38,0,0,0,.506-.734l1.15-4.155a.843.843,0,0,0-.087-.749" transform="translate(-645.486 -53.375)"/><path class="b" d="M568.294,63.1a.949.949,0,0,1-.914.695H556.722a.744.744,0,0,1-.648-.3.825.825,0,0,1-.091-.734l2.6-9.361h2.067l-2.323,8.361h8.27l2.323-8.361h2.067Z" transform="translate(-551.849 -53.369)"/><path class="c" d="M820.419,53.314l2.615,5.2-5.5,5.2Z" transform="translate(-780.358 -53.294)"/><path class="d" d="M805.9,53.314l2.613,5.2-5.5,5.2Z" transform="translate(-767.669 -53.294)"/><line class="e" y2="10.479" transform="translate(0 1.463)"/></g></g></svg>