<svg xmlns="http://www.w3.org/2000/svg" width="35.566" height="14.108" viewBox="0 0 35.566 14.108">
  <g id="GPay-Light-themed-buttons" transform="translate(-49.29 -130.773)">
    <g id="GPAY---SVGs" transform="translate(49.29 130.773)">
      <g id="GPay-Brand-Mark" transform="translate(0 0)">
        <g id="GPay">
          <g id="Pay" transform="translate(15.509 0.817)">
            <path id="Fill-1" d="M206.023,140.215v3.565h2.2a1.738,1.738,0,0,0,1.3-.528,1.79,1.79,0,0,0-1.3-3.038h-2.2Zm0,4.821v4.136H204.71V138.96h3.484a3.149,3.149,0,0,1,2.255.884,2.946,2.946,0,0,1,0,4.321,3.143,3.143,0,0,1-2.255.87h-2.171Z" transform="translate(-204.71 -138.96)" fill="#5f6368"/>
            <path id="Fill-3" d="M272.736,174.055a1.047,1.047,0,0,0,.436.856,1.606,1.606,0,0,0,1.021.342,2.094,2.094,0,0,0,1.477-.613,1.919,1.919,0,0,0,.65-1.439,2.7,2.7,0,0,0-1.713-.485,2.226,2.226,0,0,0-1.335.385,1.143,1.143,0,0,0-.536.954m1.7-5.077a3.258,3.258,0,0,1,2.3.777,2.756,2.756,0,0,1,.842,2.132v4.307H276.32v-.97h-.057a2.506,2.506,0,0,1-2.169,1.2,2.822,2.822,0,0,1-1.935-.684,2.185,2.185,0,0,1-.779-1.712,2.074,2.074,0,0,1,.82-1.725,3.465,3.465,0,0,1,2.191-.642,3.885,3.885,0,0,1,1.927.428v-.3a1.493,1.493,0,0,0-.542-1.162,1.86,1.86,0,0,0-1.271-.477,2.011,2.011,0,0,0-1.741.927l-1.157-.728a3.227,3.227,0,0,1,2.828-1.369" transform="translate(-264.727 -165.983)" fill="#5f6368"/>
            <g id="Group-7" transform="translate(13.063 3.223)">
              <path id="Fill-5" d="M342.616,171.263l-4.384,10.068h-1.356l1.628-3.523-2.884-6.546h1.428l2.084,5.02h.028l2.027-5.02Z" transform="translate(-335.62 -171.263)" fill="#5f6368"/>
            </g>
          </g>
          <g id="G">
            <path id="Fill-8" d="M113.795,180.148a6.982,6.982,0,0,0-.1-1.193h-5.539v2.26h3.173A2.715,2.715,0,0,1,110.154,183v1.468h1.894a5.737,5.737,0,0,0,1.747-4.317" transform="translate(-102.28 -174.147)" fill="#4285f4"/>
            <path id="Fill-10" d="M60.807,205.573a5.623,5.623,0,0,0,3.893-1.417l-1.894-1.468a3.563,3.563,0,0,1-5.3-1.86H55.559v1.511a5.875,5.875,0,0,0,5.248,3.234" transform="translate(-54.933 -193.838)" fill="#34a853"/>
            <path id="Fill-12" d="M51.866,166.928a3.518,3.518,0,0,1,0-2.246V163.17H49.916a5.861,5.861,0,0,0,0,5.269Z" transform="translate(-49.29 -159.937)" fill="#fabb05"/>
            <path id="Fill-14" d="M60.807,133.1a3.19,3.19,0,0,1,2.253.88h0l1.676-1.675a5.647,5.647,0,0,0-3.93-1.529,5.874,5.874,0,0,0-5.248,3.233l1.951,1.512a3.513,3.513,0,0,1,3.3-2.422" transform="translate(-54.933 -130.773)" fill="#e94235"/>
          </g>
        </g>
      </g>
    </g>
  </g>
</svg>
