<svg xmlns="http://www.w3.org/2000/svg" width="56.041" height="45.6" viewBox="0 0 56.041 45.6">
  <g id="Group_17505" data-name="Group 17505" transform="translate(-33.153 -1386.8)">
    <g id="Group_22627" data-name="Group 22627" transform="translate(34 1388)">
      <line id="Line_6612" data-name="Line 6612" x2="10.413" y2="10.413" transform="translate(27.947 14.726) rotate(-135)" fill="none" stroke="#9a9d9c" stroke-linecap="round" stroke-miterlimit="10" stroke-width="1.2"/>
      <line id="Line_6613" data-name="Line 6613" x1="10.413" y2="10.413" transform="translate(27.947 14.726) rotate(-135)" fill="none" stroke="#9a9d9c" stroke-linecap="round" stroke-miterlimit="10" stroke-width="1.2"/>
      <path id="Path_53317" data-name="Path 53317" d="M13.639,6.82A6.82,6.82,0,1,1,6.819,0,6.808,6.808,0,0,1,13.639,6.82Z" transform="translate(9.126 32.911) rotate(-132)" fill="none" stroke="#9a9d9c" stroke-miterlimit="10" stroke-width="1.2"/>
      <path id="Path_53318" data-name="Path 53318" d="M1.058,0A1.07,1.07,0,0,0,0,1.061v9.5a1.07,1.07,0,0,0,1.058,1.061h9.508a1.07,1.07,0,0,0,1.058-1.061v-9.5A1.07,1.07,0,0,0,10.567,0Z" transform="translate(45.707 31.653) rotate(-132)" fill="none" stroke="#9a9d9c" stroke-linecap="round" stroke-linejoin="round" stroke-miterlimit="10" stroke-width="1.2"/>
      <path id="Path_53319" data-name="Path 53319" d="M1.222.17,8.867,6.326a.735.735,0,0,1,0,1.133L1.2,13.637A.737.737,0,0,1,0,13.059L.022.725A.732.732,0,0,1,1.222.17Z" transform="matrix(0.017, -1, 1, 0.017, 20.19, 43.548)" fill="none" stroke="#9a9d9c" stroke-miterlimit="10" stroke-width="1.2"/>
      <line id="Line_6614" data-name="Line 6614" y2="40.379" transform="translate(12.439 37.896) rotate(-132)" fill="none" stroke="#9a9d9c" stroke-linecap="round" stroke-miterlimit="10" stroke-width="1.2"/>
      <line id="Line_6615" data-name="Line 6615" x1="41.757" transform="translate(41.283 40.03) rotate(-132)" fill="none" stroke="#9a9d9c" stroke-linecap="round" stroke-miterlimit="10" stroke-width="1.2"/>
    </g>
  </g>
</svg>
