<svg xmlns="http://www.w3.org/2000/svg" width="97.042" height="107.696" viewBox="0 0 97.042 107.696"><defs><style>.a,.c{fill:#b30041;}.b{fill:#fff;}.b,.c{fill-rule:evenodd;}</style></defs><g transform="translate(-228.999 -1209)"><g transform="translate(228.999 1209)"><rect class="a" width="97.042" height="107.696" rx="4"/></g><g transform="translate(47 524)"><g transform="translate(196 723)"><path class="b" d="M229.8,414.368a16.283,16.283,0,1,0-16.283-16.283A16.283,16.283,0,0,0,229.8,414.368Z" transform="translate(-213.512 -381.801)"/><path class="c" d="M256.008,417.012h-3.372V404.267h-1.25v14h1.25v-.009h3.372v-1.25Z" transform="translate(-235.759 -394.998)"/><path class="c" d="M245.953,402.382h-8.4v-1.25h9.627c.013.242.019.484.019.729a13.631,13.631,0,1,1-13.631-13.631q.3,0,.593.013v1.241c-.2-.01-.394-.014-.592-.014a12.391,12.391,0,1,0,12.379,12.948l0-.036Z" transform="translate(-217.288 -385.577)"/><path class="c" d="M237.928,407.958a1.915,1.915,0,1,0-1.915-1.915,1.915,1.915,0,0,0,1.915,1.915Z" transform="translate(-226.729 -394.916)"/><path class="b" d="M312.043,417.722h11.635v-3.513h-7.363V401.625h-4.272v16.1Z" transform="translate(-271.391 -393.446)"/><path class="b" d="M355.468,402.155a9.107,9.107,0,0,0-10.983.6,8.655,8.655,0,0,0-2.257,6.29,9.348,9.348,0,0,0,2.326,6.7,6.262,6.262,0,0,0,4.541,1.8c3.941,0,4.847-2.362,4.847-2.362v1.938H357.5v-9.091h-7.083v2.844h3.26s.032,3.581-3.334,3.581a3.048,3.048,0,0,1-2.2-.9,6.191,6.191,0,0,1-1.395-4.442c0-3.3,1.312-5.271,3.509-5.271a2.607,2.607,0,0,1,2.668,2.119h4.532a4.981,4.981,0,0,0-1.987-3.808Z" transform="translate(-289.122 -392.842)"/></g></g></g></svg>